HIERARCHY
ROOT Hips
{
	OFFSET 0.000000 0.000000 0.000000 
	CHANNELS 6 Xposition Yposition Zposition Zrotation Yrotation Xrotation
	JOINT LeftUpLeg
	{
		OFFSET 1.363060 -1.794630 0.839290 
		CHANNELS 3 Zrotation Yrotation Xrotation
		JOINT LeftLeg
		{
			OFFSET 2.448110 -6.726130 0.000000 
			CHANNELS 3 Zrotation Yrotation Xrotation
			JOINT LeftFoot
			{
				OFFSET 2.562200 -7.039590 0.000000 
				CHANNELS 3 Zrotation Yrotation Xrotation
				JOINT LeftToeBase
				{
					OFFSET 0.157640 -0.433110 2.322550 
					CHANNELS 3 Zrotation Yrotation Xrotation
					End Site
					{
						OFFSET 0.000000 0.000000 0.000000 
					}
				}
			}
		}
	}
	JOINT RightUpLeg
	{
		OFFSET -1.305520 -1.794630 0.839290 
		CHANNELS 3 Zrotation Yrotation Xrotation
		JOINT RightLeg
		{
			OFFSET -2.542530 -6.985550 0.000000 
			CHANNELS 3 Zrotation Yrotation Xrotation
			JOINT RightFoot
			{
				OFFSET -2.568260 -7.056230 0.000000 
				CHANNELS 3 Zrotation Yrotation Xrotation
				JOINT RightToeBase
				{
					OFFSET -0.164730 -0.452590 2.363150 
					CHANNELS 3 Zrotation Yrotation Xrotation
					End Site
					{
						OFFSET 0.000000 0.000000 0.000000 
					}
				}
			}
		}
	}
	JOINT Spine
	{
		OFFSET 0.028270 2.035590 -0.193380 
		CHANNELS 3 Zrotation Yrotation Xrotation
		JOINT Spine1
		{
			OFFSET 0.056720 2.048850 -0.042750 
			CHANNELS 3 Zrotation Yrotation Xrotation
			JOINT Neck1
			{
				OFFSET -0.054170 1.746240 0.172020 
				CHANNELS 3 Zrotation Yrotation Xrotation
				JOINT Head
				{
					OFFSET 0.104070 1.761360 -0.123970 
					CHANNELS 3 Zrotation Yrotation Xrotation
					End Site
					{
						OFFSET 0.000000 0.000000 0.000000 
					}
				}
			}
			JOINT LeftArm
			{
				OFFSET 3.362410 1.200890 -0.311210 
				CHANNELS 3 Zrotation Yrotation Xrotation
				JOINT LeftForeArm
				{
					OFFSET 4.983000 -0.000000 -0.000000 
					CHANNELS 3 Zrotation Yrotation Xrotation
					JOINT LeftHand
					{
						OFFSET 3.483560 -0.000000 -0.000000 
						CHANNELS 3 Zrotation Yrotation Xrotation
						JOINT LeftHandIndex1
						{
							OFFSET 0.715260 -0.000000 -0.000000 
							CHANNELS 3 Zrotation Yrotation Xrotation
							End Site
							{
								OFFSET 0.000000 0.000000 0.000000 
							}
						}
					}
				}
			}
			JOINT RightArm
			{
				OFFSET -3.136600 1.374050 -0.404650 
				CHANNELS 3 Zrotation Yrotation Xrotation
				JOINT RightForeArm
				{
					OFFSET -5.241900 -0.000000 -0.000000 
					CHANNELS 3 Zrotation Yrotation Xrotation
					JOINT RightHand
					{
						OFFSET -3.444170 -0.000000 -0.000000 
						CHANNELS 3 Zrotation Yrotation Xrotation
						JOINT RightHandIndex1
						{
							OFFSET -0.622530 -0.000000 -0.000000 
							CHANNELS 3 Zrotation Yrotation Xrotation
							End Site
							{
								OFFSET 0.000000 0.000000 0.000000 
							}
						}
					}
				}
			}
		}
	}
}
MOTION
Frames: 15
Frame Time: 0.041667
7.634192 17.828179 39.070240 -179.892853 3.684114 -168.309324 -26.086413 -11.185369 -4.129888 0.104676 3.527397 11.475298 0.837758 -1.216313 -16.314661 11.626600 -18.228300 -64.800100 31.343949 5.966821 -2.829736 -0.141904 -2.329387 11.166126 -0.804708 5.050267 -14.998886 -1.745000 8.313300 -23.669900 0.563568 2.470845 -4.839083 2.573424 1.184599 3.752641 7.977550 -4.896172 26.516544 2.414100 -2.771000 10.685800 -88.576648 -1.742210 21.261616 7.691150 -16.856484 -1.905896 0.410985 1.020188 26.928716 -7.125000 0.000000 0.000000 87.264834 -12.030948 -12.397755 -6.029827 23.351432 -3.661916 0.059397 -2.662030 14.649278 7.125000 0.000000 0.000000 
7.634620 17.827537 39.067456 -179.884959 3.693851 -168.282938 -26.044313 -11.152367 -4.175611 0.106049 3.533875 11.489358 0.842057 -1.248342 -16.348085 11.621300 -18.225900 -64.783300 31.368676 6.084441 -2.852454 -0.146666 -2.367341 11.263693 -0.818848 5.005625 -15.112538 -1.730100 8.279700 -23.566900 0.600098 2.413520 -4.842464 2.696731 1.159347 3.768893 7.926765 -4.797799 26.641214 2.420300 -2.755200 10.704900 -88.759612 -1.623408 20.805938 7.562112 -16.692815 -1.870745 0.410665 1.012180 27.240448 -7.125000 0.000000 0.000000 87.251744 -12.122326 -12.240936 -6.079960 23.422820 -3.672522 0.050225 -2.650972 14.677410 7.125000 0.000000 0.000000 
7.634620 17.827108 39.064457 -179.831357 3.693310 -168.232702 -25.941745 -11.088979 -4.269096 0.111643 3.544680 11.513389 0.843409 -1.384665 -16.323651 11.580000 -18.207400 -64.651300 31.441123 6.110092 -2.909642 -0.145800 -2.386082 11.302203 -0.823982 4.955388 -15.155820 -1.791700 8.417900 -23.990900 0.624642 2.397526 -4.842865 2.745931 1.154657 3.800036 7.804713 -4.760390 26.726545 2.364900 -2.755500 10.698900 -88.856207 -1.525902 20.444452 7.408014 -16.497563 -1.829351 0.413425 1.002969 27.550130 -7.125000 0.000000 0.000000 87.338185 -12.255441 -12.037186 -6.167258 23.552758 -3.675559 0.116563 -2.660453 14.646644 7.125000 0.000000 0.000000 
7.633549 17.826252 39.057603 -179.830396 3.677434 -168.177097 -25.939068 -11.048387 -4.293795 0.109709 3.528523 11.468353 0.837825 -1.418432 -16.261403 11.587300 -18.210700 -64.674600 31.430104 6.015949 -2.965092 -0.146283 -2.388091 11.301489 -0.829478 4.981995 -15.202156 -1.860000 8.568200 -24.453700 0.626841 2.421797 -4.838365 2.745470 1.164761 3.864164 7.756015 -4.794772 26.834365 2.326400 -2.771000 10.741800 -88.875007 -1.367243 20.329268 7.307760 -16.381133 -1.806634 0.419696 0.998159 27.746258 -7.125000 0.000000 0.000000 87.540438 -12.363427 -11.836288 -6.293752 23.760975 -3.715041 0.125419 -2.678935 14.386531 7.125000 0.000000 0.000000 
7.629694 17.823360 39.049035 -179.909255 3.668501 -168.123968 -26.083837 -11.087476 -4.268164 0.104110 3.513694 11.429981 0.835657 -1.331345 -16.263879 11.618000 -18.224400 -64.772600 31.290895 5.870236 -3.032397 -0.153129 -2.383868 11.288750 -0.830904 5.122026 -15.220081 -1.851700 8.550200 -24.398000 0.608333 2.460172 -4.832327 2.695642 1.177869 3.940380 7.784932 -4.851246 26.931752 2.319000 -2.787800 10.795600 -88.853297 -1.168461 20.358567 7.249248 -16.323842 -1.798569 0.426849 0.997841 27.839245 -7.125000 0.000000 0.000000 87.809423 -12.397315 -11.852297 -6.402528 23.943545 -3.776179 0.062434 -2.700071 14.317468 7.125000 0.000000 0.000000 
7.625517 17.819505 39.045608 -179.982145 3.656156 -168.080082 -26.208117 -11.156105 -4.292949 0.103734 3.524397 11.457331 0.835878 -1.251233 -16.289340 11.637100 -18.233000 -64.833900 31.174039 5.828113 -3.117614 -0.160254 -2.394327 11.310576 -0.824847 5.159389 -15.179706 -1.884400 8.621100 -24.617000 0.607880 2.433751 -4.830644 2.693855 1.163284 3.978200 7.858421 -4.793196 26.894255 2.359300 -2.762500 10.750800 -88.936790 -1.028117 20.081392 7.157847 -16.210950 -1.778227 0.429224 0.994310 28.114685 -7.125000 0.000000 0.000000 87.924164 -12.399908 -11.809418 -6.437788 24.014167 -3.794410 0.063368 -2.715260 14.443526 7.125000 0.000000 0.000000 
7.621341 17.817041 39.043895 179.956005 3.640940 -168.069711 -26.308548 -11.186420 -4.277701 0.101138 3.516994 11.438259 0.836061 -1.225340 -16.298297 11.678600 -18.251400 -64.966300 31.082880 5.839179 -3.156612 -0.166640 -2.409270 11.350303 -0.821344 5.151705 -15.155058 -1.888200 8.629200 -24.642200 0.616495 2.389684 -4.833461 2.723531 1.142768 3.974182 7.926660 -4.739865 26.914834 2.397100 -2.746000 10.726100 -89.063684 -0.912227 19.655736 7.028966 -16.042232 -1.745100 0.430407 0.986982 28.478299 -7.125000 0.000000 0.000000 87.962127 -12.436530 -11.642688 -6.440914 24.042511 -3.783932 0.094237 -2.720325 14.413271 7.125000 0.000000 0.000000 
7.616628 17.816613 39.040039 179.956910 3.631091 -168.045093 -26.337542 -11.231786 -4.264546 0.101110 3.512797 11.426873 0.840282 -1.283295 -16.321623 11.670500 -18.247900 -64.940600 31.062227 5.809207 -3.190719 -0.171092 -2.421719 11.382285 -0.820262 5.173653 -15.149160 -1.887900 8.628600 -24.640200 0.630545 2.356237 -4.828462 2.738988 1.125139 4.014153 8.012421 -4.774067 26.928039 2.433200 -2.762700 10.718100 -89.179132 -0.842289 19.233081 6.875877 -15.841745 -1.708781 0.434721 0.979945 28.845510 -7.125000 0.000000 0.000000 87.980984 -12.350316 -11.655239 -6.286395 23.868194 -3.730187 0.072074 -2.712503 14.872023 7.125000 0.000000 0.000000 
7.613737 17.817041 39.038112 -179.938160 3.598491 -167.951822 -26.205287 -11.322027 -4.376427 0.106515 3.539417 11.487369 0.842967 -1.330677 -16.338589 11.625300 -18.227700 -64.796000 31.190187 5.830336 -3.292810 -0.166915 -2.438495 11.405293 -0.819324 5.082884 -15.145726 -2.022400 8.912600 -25.522300 0.659506 2.319299 -4.821534 2.747472 1.106385 4.089874 8.073793 -4.802583 26.931419 2.465500 -2.775400 10.725300 -89.290518 -0.844353 18.860013 6.735195 -15.656910 -1.675543 0.436325 0.974443 29.134336 -7.125000 0.000000 0.000000 88.016572 -12.178066 -11.713426 -5.991833 23.538321 -3.643281 -0.018012 -2.687930 16.113601 7.125000 0.000000 0.000000 
7.612237 17.816934 39.035863 -179.821945 3.615993 -167.849874 -26.047194 -11.365521 -4.478560 0.107250 3.552151 11.510499 0.847199 -1.328487 -16.383042 11.602000 -18.217300 -64.721700 31.340809 5.928315 -3.392029 -0.160522 -2.452110 11.414970 -0.819437 4.995364 -15.151931 -2.121400 9.114600 -26.154400 0.677158 2.337226 -4.825320 2.743979 1.117557 4.114729 8.062726 -4.840865 27.023881 2.453400 -2.796100 10.766800 -89.358693 -0.773314 18.662026 6.646861 -15.542299 -1.648890 0.429019 0.969654 29.281174 -7.125000 0.000000 0.000000 88.096921 -12.047185 -12.054896 -6.109508 23.623885 -3.678815 0.034326 -2.718436 15.671765 7.125000 0.000000 0.000000 
7.610417 17.815649 39.032221 -179.823928 3.704375 -167.829191 -26.053631 -11.329308 -4.462813 0.103009 3.537996 11.472023 0.852554 -1.322444 -16.434213 11.569200 -18.202500 -64.616600 31.331806 6.006137 -3.399345 -0.161084 -2.452528 11.411255 -0.818274 5.021978 -15.145870 -2.071300 9.013000 -25.836000 0.683422 2.380380 -4.818229 2.783442 1.137625 4.126632 7.996841 -4.867342 27.111622 2.413500 -2.812600 10.799400 -89.449891 -0.692725 18.485527 6.587409 -15.466378 -1.624702 0.417053 0.963036 29.390642 -7.125000 0.000000 0.000000 88.189597 -12.021027 -12.109033 -6.205218 23.738085 -3.719096 0.020470 -2.729278 15.719824 7.125000 0.000000 0.000000 
7.608382 17.814578 39.031472 -179.887316 3.757442 -167.861754 -26.140341 -11.271703 -4.416959 0.100199 3.521886 11.431786 0.846678 -1.307305 -16.381810 11.574100 -18.204800 -64.632500 31.238536 6.007029 -3.371837 -0.167737 -2.456561 11.431907 -0.819459 5.098590 -15.155901 -1.996000 8.857700 -25.351200 0.685691 2.410766 -4.800071 2.833506 1.148082 4.145125 7.964902 -4.894445 27.161250 2.398700 -2.826200 10.835800 -89.533974 -0.679778 18.274875 6.485759 -15.334913 -1.600019 0.410937 0.961645 29.652607 -7.125000 0.000000 0.000000 88.246735 -11.986113 -12.019694 -6.203144 23.765082 -3.735646 -0.024949 -2.729369 16.131913 7.125000 0.000000 0.000000 
7.606668 17.814150 39.032007 -179.909833 3.777151 -167.868117 -26.174943 -11.238332 -4.414301 0.099838 3.514792 11.413098 0.836567 -1.288350 -16.290389 11.592900 -18.213200 -64.692400 31.202802 5.992581 -3.388502 -0.173325 -2.470147 11.470133 -0.823654 5.149224 -15.192280 -1.959200 8.780600 -25.111400 0.680951 2.450848 -4.794030 2.828293 1.166710 4.139224 7.947947 -4.959952 27.251516 2.379900 -2.857100 10.884700 -89.531627 -0.563413 18.228144 6.407098 -15.241353 -1.585335 0.403082 0.966529 29.922282 -7.125000 0.000000 0.000000 88.355899 -11.949540 -12.049790 -6.200558 23.782577 -3.749276 -0.043308 -2.744105 16.236177 7.125000 0.000000 0.000000 
7.604527 17.813186 39.031365 -179.962528 3.814996 -167.861863 -26.252114 -11.229880 -4.405386 0.098317 3.505424 11.388634 0.835585 -1.303776 -16.275687 11.562000 -18.199300 -64.593600 31.134446 6.002391 -3.387253 -0.171641 -2.458600 11.439050 -0.824944 5.137564 -15.201923 -1.970700 8.804800 -25.186700 0.679299 2.449841 -4.790685 2.836486 1.161419 4.158650 7.809913 -4.977717 27.418501 2.307200 -2.875800 10.957900 -89.539524 -0.445054 18.159840 6.364349 -15.191481 -1.575424 0.402332 0.965106 30.059296 -7.125000 0.000000 0.000000 88.382058 -11.844667 -12.143550 -6.164251 23.722111 -3.729358 -0.027743 -2.748826 16.292539 7.125000 0.000000 0.000000 
7.601849 17.812115 39.028580 -179.923220 3.840957 -167.823227 -26.206642 -11.218632 -4.403021 0.093551 3.478445 11.314649 0.837089 -1.361429 -16.273586 11.525200 -18.182600 -64.475700 31.182894 6.085107 -3.363088 -0.163044 -2.434459 11.367269 -0.818839 5.103052 -15.152013 -1.914800 8.686400 -24.819100 0.693869 2.414782 -4.785876 2.838608 1.140449 4.220495 7.685673 -4.922556 27.601115 2.257400 -2.864600 11.046700 -89.583308 -0.454665 17.829123 6.257470 -15.045394 -1.554597 0.419935 0.956609 30.365536 -7.125000 0.000000 0.000000 88.344494 -11.765344 -12.078806 -6.174796 23.726760 -3.717301 -0.009386 -2.741627 16.363871 7.125000 0.000000 0.000000 
